<mxfile host="app.diagrams.net" modified="2024-03-30T05:39:22.807Z" agent="Mozilla/5.0 (Windows NT 10.0; Win64; x64) AppleWebKit/537.36 (KHTML, like Gecko) Chrome/123.0.0.0 Safari/537.36 Edg/123.0.0.0" version="24.2.1" etag="MzBnJvxJ_A8WUeLCk-1M" type="github">
  <diagram name="第 1 页" id="ZnnD7W1rsApDP7_JBCAh">
    <mxGraphModel>
      <root>
        <mxCell id="0" />
        <mxCell id="1" parent="0" />
      </root>
    </mxGraphModel>
  </diagram>
</mxfile>
